<?xml version="1.0" encoding="UTF-8" standalone="no"?>
<svg
   viewBox="0 0 162.50809 261.08079"
   version="1.1"
   id="svg76"
   sodipodi:docname="aec88abe2c91a5f2ee96ec93ece0450b.svg"
   width="162.50809"
   height="261.08078"
   xmlns:inkscape="http://www.inkscape.org/namespaces/inkscape"
   xmlns:sodipodi="http://sodipodi.sourceforge.net/DTD/sodipodi-0.dtd"
   xmlns="http://www.w3.org/2000/svg"
   xmlns:svg="http://www.w3.org/2000/svg">
  <sodipodi:namedview
     id="namedview78"
     pagecolor="#ffffff"
     bordercolor="#666666"
     borderopacity="1.0"
     inkscape:pageshadow="2"
     inkscape:pageopacity="0.0"
     inkscape:pagecheckerboard="0" />
  <defs
     id="defs4">
    <style
       id="style2">.cls-1{isolation:isolate;}.cls-2{fill:#060000;}.cls-3{fill:#f24e3d;mix-blend-mode:multiply;}</style>
  </defs>
  <g
     class="cls-1"
     id="g74"
     transform="translate(0.02,5.6980517e-5)">
    <g
       id="Layer_2"
       data-name="Layer 2">
      <g
         id="OBJECTS">
        <path
           class="cls-2"
           d="M 7,114.94 A 3.51,3.51 0 1 1 3.49,111.43 3.51,3.51 0 0 1 7,114.94 Z"
           id="path6" />
        <path
           class="cls-2"
           d="m 37.21,114.94 a 3.51,3.51 0 1 1 -3.51,-3.51 3.51,3.51 0 0 1 3.51,3.51 z"
           id="path8" />
        <path
           class="cls-2"
           d="m 67.4,114.94 a 3.52,3.52 0 1 1 -3.52,-3.51 3.52,3.52 0 0 1 3.52,3.51 z"
           id="path10" />
        <path
           class="cls-2"
           d="m 97.58,114.94 a 3.51,3.51 0 1 1 -3.51,-3.51 3.51,3.51 0 0 1 3.51,3.51 z"
           id="path12" />
        <path
           class="cls-2"
           d="M 7,143.57 A 3.51,3.51 0 1 1 3.49,140.06 3.51,3.51 0 0 1 7,143.57 Z"
           id="path14" />
        <path
           class="cls-2"
           d="m 37.21,143.57 a 3.51,3.51 0 1 1 -3.51,-3.51 3.51,3.51 0 0 1 3.51,3.51 z"
           id="path16" />
        <path
           class="cls-2"
           d="m 67.4,143.57 a 3.52,3.52 0 1 1 -3.52,-3.51 3.52,3.52 0 0 1 3.52,3.51 z"
           id="path18" />
        <path
           class="cls-2"
           d="m 97.58,143.57 a 3.51,3.51 0 1 1 -3.51,-3.51 3.51,3.51 0 0 1 3.51,3.51 z"
           id="path20" />
        <path
           class="cls-2"
           d="M 7,172.19 A 3.51,3.51 0 1 1 3.49,168.68 3.52,3.52 0 0 1 7,172.19 Z"
           id="path22" />
        <path
           class="cls-2"
           d="m 37.21,172.19 a 3.51,3.51 0 1 1 -3.51,-3.51 3.52,3.52 0 0 1 3.51,3.51 z"
           id="path24" />
        <path
           class="cls-2"
           d="m 67.4,172.19 a 3.52,3.52 0 1 1 -3.52,-3.51 3.53,3.53 0 0 1 3.52,3.51 z"
           id="path26" />
        <path
           class="cls-2"
           d="m 97.58,172.19 a 3.51,3.51 0 1 1 -3.51,-3.51 3.52,3.52 0 0 1 3.51,3.51 z"
           id="path28" />
        <path
           class="cls-2"
           d="M 7,200.82 A 3.51,3.51 0 1 1 3.49,197.31 3.51,3.51 0 0 1 7,200.82 Z"
           id="path30" />
        <path
           class="cls-2"
           d="m 37.21,200.82 a 3.51,3.51 0 1 1 -3.51,-3.51 3.51,3.51 0 0 1 3.51,3.51 z"
           id="path32" />
        <path
           class="cls-2"
           d="m 67.4,200.82 a 3.52,3.52 0 1 1 -3.52,-3.51 3.52,3.52 0 0 1 3.52,3.51 z"
           id="path34" />
        <path
           class="cls-2"
           d="m 97.58,200.82 a 3.51,3.51 0 1 1 -3.51,-3.51 3.51,3.51 0 0 1 3.51,3.51 z"
           id="path36" />
        <path
           class="cls-2"
           d="M 7,3.51 A 3.51,3.51 0 1 1 3.51,0 3.51,3.51 0 0 1 7,3.51 Z"
           id="path38" />
        <path
           class="cls-2"
           d="M 37.21,3.51 A 3.51,3.51 0 1 1 33.7,0 3.51,3.51 0 0 1 37.21,3.51 Z"
           id="path40" />
        <path
           class="cls-2"
           d="M 67.4,3.51 A 3.52,3.52 0 1 1 63.88,0 3.52,3.52 0 0 1 67.4,3.51 Z"
           id="path42" />
        <path
           class="cls-2"
           d="M 97.58,3.51 A 3.51,3.51 0 1 1 94.07,0 3.51,3.51 0 0 1 97.58,3.51 Z"
           id="path44" />
        <path
           class="cls-2"
           d="M 7,32.14 A 3.51,3.51 0 1 1 3.49,28.63 3.51,3.51 0 0 1 7,32.14 Z"
           id="path46" />
        <path
           class="cls-2"
           d="m 37.21,32.14 a 3.51,3.51 0 1 1 -3.51,-3.51 3.51,3.51 0 0 1 3.51,3.51 z"
           id="path48" />
        <path
           class="cls-2"
           d="m 67.4,32.14 a 3.52,3.52 0 1 1 -3.52,-3.51 3.52,3.52 0 0 1 3.52,3.51 z"
           id="path50" />
        <path
           class="cls-2"
           d="m 97.58,32.14 a 3.51,3.51 0 1 1 -3.51,-3.51 3.51,3.51 0 0 1 3.51,3.51 z"
           id="path52" />
        <path
           class="cls-2"
           d="M 7,60.77 A 3.51,3.51 0 1 1 3.49,57.25 3.51,3.51 0 0 1 7,60.77 Z"
           id="path54" />
        <path
           class="cls-2"
           d="m 37.21,60.77 a 3.51,3.51 0 1 1 -3.51,-3.52 3.51,3.51 0 0 1 3.51,3.52 z"
           id="path56" />
        <path
           class="cls-2"
           d="m 67.4,60.77 a 3.52,3.52 0 1 1 -3.52,-3.52 3.52,3.52 0 0 1 3.52,3.52 z"
           id="path58" />
        <path
           class="cls-2"
           d="m 97.58,60.77 a 3.51,3.51 0 1 1 -3.51,-3.52 3.51,3.51 0 0 1 3.51,3.52 z"
           id="path60" />
        <path
           class="cls-2"
           d="M 7,89.39 A 3.51,3.51 0 1 1 3.49,85.88 3.51,3.51 0 0 1 7,89.39 Z"
           id="path62" />
        <path
           class="cls-2"
           d="m 37.21,89.39 a 3.51,3.51 0 1 1 -3.51,-3.51 3.51,3.51 0 0 1 3.51,3.51 z"
           id="path64" />
        <path
           class="cls-2"
           d="m 67.4,89.39 a 3.52,3.52 0 1 1 -3.52,-3.51 3.52,3.52 0 0 1 3.52,3.51 z"
           id="path66" />
        <path
           class="cls-2"
           d="m 97.58,89.39 a 3.51,3.51 0 1 1 -3.51,-3.51 3.51,3.51 0 0 1 3.51,3.51 z"
           id="path68" />
        <circle
           class="cls-3"
           cx="107.74"
           cy="206.34"
           r="54.75"
           transform="rotate(-45,107.72786,206.33766)"
           id="circle70" />
      </g>
    </g>
  </g>
</svg>
