<svg xmlns="http://www.w3.org/2000/svg" viewBox="0 0 181.85 123.59"><defs><style>.cls-1{isolation:isolate;}.cls-2{mix-blend-mode:multiply;}.cls-3{fill:#f24e3d;}.cls-4{fill:none;stroke:#060000;stroke-miterlimit:10;stroke-width:1.3px;}</style></defs><g class="cls-1"><g id="Layer_2" data-name="Layer 2"><g id="OBJECTS"><g class="cls-2"><circle class="cls-3" cx="3.41" cy="92.38" r="3.41"/><circle class="cls-3" cx="32.72" cy="92.38" r="3.41"/><path class="cls-3" d="M65.44,92.38A3.41,3.41,0,1,1,62,89,3.4,3.4,0,0,1,65.44,92.38Z"/><circle class="cls-3" cx="91.34" cy="92.38" r="3.41"/><circle class="cls-3" cx="3.41" cy="120.18" r="3.41"/><circle class="cls-3" cx="32.72" cy="120.18" r="3.41"/><path class="cls-3" d="M65.44,120.18A3.41,3.41,0,1,1,62,116.77,3.41,3.41,0,0,1,65.44,120.18Z"/><circle class="cls-3" cx="91.34" cy="120.18" r="3.41"/></g><rect class="cls-4" x="111.03" y="0.92" width="70.17" height="70.17" transform="translate(292.23 72.01) rotate(180)"/><polyline class="cls-4" points="181.2 71.09 154.71 97.58 83.91 97.58 83.91 27.12 110.57 0.46"/><line class="cls-4" x1="111.03" y1="71.09" x2="84.23" y2="97.89"/></g></g></g></svg>