<svg width="239" height="224" viewBox="0 0 239 224" fill="none" xmlns="http://www.w3.org/2000/svg">
<g clip-path="url(#clip0_20_60)">
<path d="M206.596 184.528C248.808 142.316 248.808 73.8776 206.596 31.6659C164.385 -10.5459 95.9459 -10.5459 53.7341 31.6659C11.5224 73.8776 11.5224 142.316 53.7341 184.528C95.9459 226.74 164.385 226.74 206.596 184.528Z" fill="#FEF08A"/>
<path d="M1.25 164.6C1.25 153.156 4.64343 141.97 11.0012 132.455C17.3589 122.94 26.3954 115.524 36.9679 111.144C47.5405 106.765 59.1742 105.619 70.3979 107.852C81.6217 110.084 91.9313 115.595 100.023 123.687C108.115 131.779 113.626 142.088 115.858 153.312C118.091 164.536 116.945 176.17 112.566 186.742C108.186 197.315 100.77 206.351 91.2553 212.709C81.7403 219.067 70.5536 222.46 59.11 222.46" stroke="#124F81" stroke-width="2.5" stroke-miterlimit="10"/>
</g>
<defs>
<clipPath id="clip0_20_60">
<rect width="238.27" height="223.71" fill="white"/>
</clipPath>
</defs>
</svg>
